<svg xmlns="http://www.w3.org/2000/svg" viewBox="0 0 963.3 911"><defs><style>  .cls-1{fill:#00ffec;}.cls-2{fill:#fff;}</style></defs><title>  kleber_digital_logo_vectoresRecurso 4</title><g data-name="Capa 2"><path class="cls-1" d="M26.9 404S71.8 179.7 0 161.8c0 0 77.8 15 77.8 59.8S104.7 90 65.8 84c0 0 83.7 26.9 83.7 71.8 0 0 305.1-224.3 433.7-134.6 0 0-65.8 12-65.8 44.9 0 0 281.2-53.8 296.1 23.9 0 0-152.5 29.9-140.6 92.7s233.3 38.9 245.3-71.8 98.7 206.4-6 293.1Z"/><path class="cls-2" d="M25.1 496.7C40.6 728.1 233.7 911 469.7 911s429.1-182.9 444.6-414.2ZM339.6 770.5a66.7 66.7 0 1 1 67.8-65.6A66.7 66.7 0 0 1 339.6 770.5Zm258 0a66.7 66.7 0 1 1 67.8-65.6A66.7 66.7 0 0 1 597.6 770.5Z"/></g></svg>
